<svg id="Layer_1" xmlns="http://www.w3.org/2000/svg" viewBox="0 0 295 37.3"><style>.st0{fill:#FFFFFF;}</style><path class="st0" d="M1.6 1.8h18.3c4.1 0 7.2 1.1 9.3 3.4 2.1 2.3 3.1 5.2 3.1 9 0 2.2-.6 4.2-1.7 5.9s-2.6 3.1-4.4 4.2c.7.5 1.2 1.3 1.7 2.3l3.9 9H20.1l-3.5-7.8c-.2-.5-.5-.9-.8-1.1-.3-.2-.7-.3-1.3-.3h-1.6v9.2H1.6V1.8zM17 17.6c1.2 0 2.2-.3 2.8-.9.6-.6 1-1.5 1-2.6 0-2.4-1.2-3.6-3.5-3.6h-4.4v7.1H17zM38.1 32c-3-2.7-4.5-7.2-4.5-13.3 0-6.2 1.5-10.6 4.5-13.4 3-2.7 7.4-4.1 13.2-4.1 5.8 0 10.3 1.4 13.2 4.1 3 2.7 4.5 7.2 4.5 13.4 0 6.1-1.5 10.5-4.5 13.3-3 2.7-7.4 4.1-13.2 4.1-5.9 0-10.3-1.4-13.2-4.1zM56 24.7c1-1.2 1.4-3.2 1.4-6 0-2.9-.5-4.9-1.4-6.1-.9-1.2-2.5-1.8-4.7-1.8s-3.8.6-4.8 1.8c-1 1.2-1.4 3.2-1.4 6.1 0 2.8.5 4.8 1.4 6 1 1.2 2.5 1.8 4.8 1.8 2.2 0 3.7-.6 4.7-1.8zM74.8 31.7c-3.3-3-5-7.3-5-12.9 0-5.7 1.6-10.1 4.9-13.1 3.3-3 8.1-4.5 14.5-4.5 2.1 0 3.9.1 5.6.4 1.6.3 3.3.8 4.9 1.4v9.8c-3.1-1.4-6.4-2.1-9.7-2.1-2.9 0-5.1.6-6.5 1.9-1.5 1.3-2.2 3.3-2.2 6.1 0 2.7.7 4.7 2.2 5.9 1.5 1.2 3.7 1.8 6.6 1.8 3.4 0 6.6-.7 9.7-2v9.9c-1.6.6-3.3 1-4.9 1.3s-3.5.4-5.6.4c-6.4.1-11.2-1.4-14.5-4.3zM103 1.8h11.3v10.7l8.8-10.7h12.8l-11.7 14 12.7 19.8h-12l-7.6-12.7-2.9 3.4v9.3H103V1.8zM139.9 1.8h26.3v8.3h-15v4.3h13.1V23h-13.1v4.3h15v8.3h-26.3V1.8zM176 10h-9V1.8h29.4V10h-9.1v25.6H176V10zM198.5 1.8h19.3c3.4 0 6.1.8 7.9 2.5 1.9 1.6 2.8 4 2.8 7 0 1.7-.3 3.1-.9 4.3-.6 1.2-1.4 2.2-2.5 2.9 1.5.7 2.6 1.5 3.4 2.6.8 1.1 1.1 2.5 1.1 4.5 0 3.2-1 5.7-3 7.5-2 1.8-4.9 2.7-8.5 2.7h-19.6v-34zM214.8 15c2 0 3-.9 3-2.7 0-1.8-1.1-2.7-3.2-2.7h-5.4V15h5.6zm.2 12.9c1.1 0 1.9-.2 2.4-.7s.8-1.2.8-2.2c0-1.8-1.1-2.7-3.3-2.7h-5.7V28h5.8zM273.1 10h-9V1.8h29.4V10h-9.1v25.6h-11.3V10zM252.6 13.1c-.8-.5-1.8-.7-2.7-.4-.7.2-1.4.7-1.8 1.3-1 1.5-.6 3.5.9 4.5.8.5 1.8.7 2.7.4.7-.2 1.3-.7 1.8-1.3 1-1.5.6-3.4-.9-4.5z"/><path class="st0" d="M261.4 5.4c-3-2.7-7.4-4.1-13.2-4.1-5.8 0-10.3 1.4-13.2 4.1-3 2.7-4.5 7.2-4.5 13.4 0 6.1 1.5 10.5 4.5 13.3 3 2.7 7.4 4.1 13.2 4.1 5.8 0 10.3-1.4 13.2-4.1 3-2.7 4.5-7.2 4.5-13.3 0-6.2-1.5-10.7-4.5-13.4zM252 33.8l-5.1-3.4c-.6 1-1.6 1.7-2.6 2-1.4.4-2.9.2-4.1-.6-2.2-1.5-2.8-4.5-1.4-6.8l-5.1-3.4c1.8-2.7 4.7-4.4 7.7-4.8 4.7-7.9 9.5-10.2 16.5-11.6 1.4 7 1.1 12.3-4.4 19.7.8 2.9.4 6.2-1.5 8.9z"/></svg>