<?xml version="1.0" encoding="utf-8"?>
<!-- Generator: Adobe Illustrator 24.2.3, SVG Export Plug-In . SVG Version: 6.00 Build 0)  -->
<svg version="1.1" id="Capa_1" xmlns="http://www.w3.org/2000/svg" xmlns:xlink="http://www.w3.org/1999/xlink" x="0px" y="0px"
	 viewBox="0 0 64 64" style="enable-background:new 0 0 64 64;" xml:space="preserve">
<style type="text/css">
	.st0{fill:#BC0017;}
</style>
<g>
	<g>
		<g>
			<path class="st0" d="M39.3,43.3c0-1.7,0-3.3,0-4.9c3,0,5.9,0,8.8,0c4.4,0,7.9-2.8,8.6-6.9c0.8-4.3-1.5-8.2-5.8-9.7
				c-1.2-0.4-1.4-1-1.4-2.2c0.3-6.8-4.3-12-11-12.9c-4.6-0.6-9.5,2-11.8,6.3c-0.4,0.7-0.8,1.4-1.2,2.2c-0.7-0.3-1.2-0.5-1.7-0.7
				c-4.5-1.8-8.8,0.6-9.5,5.5c-0.1,0.9-0.5,1.3-1.3,1.6C8.6,23.3,6.3,27,7,31.4c0.7,4.1,4.3,7,8.8,7c2.8,0,5.7,0,8.6,0
				c0,1.7,0,3.2,0,5.1c-4.1-0.2-8.3,0-12.3-0.7c-5.5-1-9.3-5.6-10.1-11.1C1.3,26.5,4,21.2,8.6,18.3c0.6-0.4,1.2-1.1,1.5-1.8
				c2-4.9,7-8,12.2-7.3c0.9,0.1,1.2-0.4,1.6-0.9c4.5-5.4,10.2-7.5,17-6.1C47.5,3.7,52,7.8,53.7,14.4c0.6,2.4,1.5,4,3.5,5.6
				c4.3,3.4,5.6,9.2,3.8,14.3c-1.8,5.2-6.4,8.7-12.1,9C45.8,43.4,42.6,43.3,39.3,43.3z"/>
		</g>
		<g>
			<path class="st0" d="M34.7,54.2c1.6-1.6,3.2-3.3,4.8-4.9c1.4-1.4,2.8-1.5,3.9-0.4c1,1.1,0.9,2.5-0.4,3.8c-3,3-6,6.1-9.1,9.1
				c-1.4,1.4-2.7,1.4-4.1,0c-3.1-3-6.1-6.1-9.2-9.2c-1.2-1.2-1.3-2.6-0.3-3.7c1-1.1,2.5-1,3.8,0.3c1.7,1.6,3.3,3.3,5.3,5.3
				c0-0.8,0-1.3,0-1.7c0-6.9,0-13.7,0-20.6c0-0.4,0-0.8,0-1.2c0.2-1.4,1.2-2.3,2.5-2.2c1.3,0,2.2,0.9,2.4,2.3c0.1,0.7,0,1.5,0,2.2
				c0,6.5,0,13,0,19.5c0,0.5,0,1,0,1.5C34.4,54.1,34.6,54.2,34.7,54.2z"/>
		</g>
	</g>
</g>
</svg>
